<?xml version="1.0" encoding="UTF-8" standalone="no"?>
<svg
   width="308.7612359841165"
   height="304.915625"
   viewBox="0 0 106.00782394174519 104.68749999999999"
   class="css-1j8o68f"
   version="1.1"
   id="svg23"
   sodipodi:docname="logo.svg"
   inkscape:version="1.3.2 (091e20e, 2023-11-25, custom)"
   xmlns:inkscape="http://www.inkscape.org/namespaces/inkscape"
   xmlns:sodipodi="http://sodipodi.sourceforge.net/DTD/sodipodi-0.dtd"
   xmlns="http://www.w3.org/2000/svg"
   xmlns:svg="http://www.w3.org/2000/svg">
  <sodipodi:namedview
     id="namedview25"
     pagecolor="#ffffff"
     bordercolor="#000000"
     borderopacity="0.25"
     inkscape:showpageshadow="2"
     inkscape:pageopacity="0.0"
     inkscape:pagecheckerboard="0"
     inkscape:deskcolor="#d1d1d1"
     inkscape:zoom="2.5810419"
     inkscape:cx="176.2854"
     inkscape:cy="162.53126"
     inkscape:window-width="1920"
     inkscape:window-height="1001"
     inkscape:window-x="-9"
     inkscape:window-y="-9"
     inkscape:window-maximized="1"
     inkscape:current-layer="svg23" />
  <defs
     id="SvgjsDefs2684" />
  <g
     id="SvgjsG2685"
     featurekey="rootContainer"
     transform="matrix(0.9820592540669653,0,0,0.9820592540669653,-0.054560523427421584,0)"
     fill="#ff4a3f">
    <g
       id="g17">
      <path
         d="M19.8 15.3h.5l-.4-.2zm.5.1zm.8-.7c0 .1 0 .1.1.1l.4-.3c-.2-.1-.3-.1-.5.2zm.4-.2zm-4.1 2.3zm-.2.6l.3-.2c.1-.1.1-.2.1-.2h-.2l-.2.4c-.1-.1-.1 0 0 0zm2.2-2.9h-.1l-.2.2h.3zm-2.1 2.4l.6-.5c.1-.1.1-.2.1-.3h-.3l-1.2 1.1-.2.4.7-.6zm-1.1.8z"
         id="path3" />
      <path
         d="M9.7 25v-.2a1.7 1.7 0 0 1 .7-1.1l.9-.6.5-.6.7-.7.4-.4.4-.3a1.9 1.9 0 0 0 .8-.9l.4-.5a5.9 5.9 0 0 0 1-1.3l.2-.3.3-.2-.2-.3.4-.5c.8-.6 1.4-1.4 2.2-2l.3-.3a1.4 1.4 0 0 1 .5-.6l.8-.4h.4a1.4 1.4 0 0 0 .7-.6V13a3.5 3.5 0 0 1 1.3-1.4l.8-.5.2-.2.4-.4 1-.5h.2l-1.1.4-1.4 1c-.6.5-1.4.6-1.8 1.4h.3c-.7.2-1.4.5-1.7 1.2s-.8.6-1.2.9a.4.4 0 0 0-.3.4c-.8-.1-1.1.5-1.5.9v.8a3.9 3.9 0 0 0-1.6 1.4c-1.6.1-1.6 2.1-3 2.5h-.1a.2.2 0 0 0 0 .2c-.3 0-.5.2-.4.5l-.2.5c-.7.4-.6 1.1-1 1.7-.8.5-1.1 1.5-1.7 2.2l.3.5.2-.2a11.6 11.6 0 0 1 .9-1.3zM53.9 3.3l.6.2h.2a2.2 2.2 0 0 0 1.4.2 4.1 4.1 0 0 1 1.9.1h1.2a1.4 1.4 0 0 1 1.2.3.1.1 0 0 1 0 .1H60a.1.1 0 0 0 0 .1h.7a1.8 1.8 0 0 1 1.3 0c.2 0 .1.1.2.2l.5.2h-.2c-.2-.4-.5-.4-.8-.4a9.7 9.7 0 0 0-4.3-.9h-.8A9.8 9.8 0 0 0 53 3h.2zm7.3 3.1zM50.3 4.7zm10.9 1.7h.2-.2zM19 14.7zm32.1-10zm17.6 2.2a.9.9 0 0 0 1 .2h.6a3.1 3.1 0 0 0-1.8-.7l-.7-.2.5.3zm-3.4-1.3c0 .1.1.2.2.3h.2l.5-.3a4.2 4.2 0 0 0-1.7-.6l.7.4zm7.4 2.7l.8.5c-.2-.3-.4-.5-.8-.5z"
         id="path5" />
      <path
         d="m 99,76.1 c 2.18657,-5.387586 3.83388,-11.021958 4.06524,-16.851886 -0.92505,-6.030005 -1.3531,-12.108422 -2.46476,-18.107933 C 99.949294,35.282813 97.011551,30.809637 94.409061,25.718258 92.894522,21.630788 91.099558,21.468848 92.407085,23.652002 88.276253,19.076924 83.818583,14.743972 78.838365,11.110315 77.57588,9.5413004 72.986737,8.3495248 77.302737,10.387866 79.622216,11.388242 82.58352,15.137366 78.1,12.5 72.522412,10.012404 66.809281,7.6471681 60.751968,6.6429491 57.799043,6.5029273 54.245118,5.6456994 54.261338,5.0731716 51.770855,5.9618574 44.444302,4.2994255 50.733705,4.0759731 52.929437,3.21444 45.920069,3.9295008 44.307249,3.6384485 38.147782,3.8674745 32.268084,6.1823778 26.89772,9.0496892 29.515371,7.2261609 38.342804,5.0636506 32.090773,8.4337804 34.093939,7.5201919 37.241449,6.855213 33.336319,8.4703885 28.639444,9.9453215 24.00913,12.105131 20.3,15.4 c -4.174755,1.779088 -6.503463,6.129785 -9.302729,9.502501 -2.5846118,1.417367 -5.5921991,4.810206 -4.5213526,7.755611 3.0279202,-3.845943 5.8104206,-5.272667 8.5877656,-9.345627 5.253076,-2.696131 -1.188099,4.22346 -2.869112,5.224028 C 9.9437777,29.837967 9.3457224,32.482926 7.8966028,34.696402 6.8166047,36.778555 6.1216175,39.0429 5.2,41.2 3.3437882,40.4325 4.1919041,34.035401 1.7893475,38.81657 c -2.78706724,4.872555 -0.75403,9.644743 2.4879672,13.367687 -0.5482735,1.17225 -0.9377881,7.276076 -1.2888059,5.127234 -1.7129416,0.556094 0.5374499,9.02003 -1.2925551,3.552226 C 0.89744871,58.386943 1.5121373,55.954661 1.8513414,56.169554 1.7145134,54.310031 0.74277461,49.456335 0.1,54.097281 c -0.18267564,9.249708 1.8743632,18.490301 6.3025324,26.629288 2.5339063,4.868511 6.2539656,8.802672 10.0096986,11.322811 4.072239,1.366109 6.252052,5.643013 10.378943,6.903165 4.413182,2.524265 9.098981,4.097005 14.194914,4.655695 5.606787,0.5999 11.245832,1.5301 16.910287,0.69176 2.076945,-0.23236 8.027871,-0.78245 2.905581,0.33153 -4.307704,1.00388 -8.754866,0.41825 -13.149383,0.85254 -4.88605,-0.63443 -10.156341,-1.63408 -15.097189,-2.84241 1.36852,2.13745 8.355218,2.52151 11.962693,3.4831 6.53131,0.97423 13.060419,0.12314 19.466866,-1.08511 5.395157,-0.0795 10.244657,-2.80295 14.599589,-5.616338 4.991231,-2.58877 8.305679,-8.067418 14.127781,-8.718989 C 95.893327,87.7396 96.365126,82.337404 98.76005,78.644201 99.107551,77.818862 98.730416,76.938657 99,76.1 Z"
         id="path7" />
      <path
         d="m 26.4,9.3 c -0.663786,0.52998 -1.034517,0.825979 0,0 z m 6.1,-2 c 0.938083,0.3622362 0.01499,-0.7100792 0,0 z m -2.6,1 c -0.358564,-0.011675 0.125095,0.248973 0,0 z M 9.2,26.2 c -0.9586705,0.242384 0.1187435,0.714545 0,0 z m 3,-3.5 c 1.781706,-1.556942 -0.950775,0.03898 0,0 z M 11,24.2 c -0.763522,-0.837303 -0.864077,1.684041 0,0 z m 62.9,-15 c -0.371514,-0.3152423 -0.252538,-0.2142869 0,0 z M 71.4,7.8 c 3.194604,1.5140926 -2.392074,-1.6491923 0,0 z M 64.5,5.1 c -1.29808,-0.2265296 -1.455474,-0.2539967 0,0 z m 2,0.7 c 1.204411,0.370588 1.463811,0.4504032 0,0 z m -9,0 c 0.71555,-1.2356993 -1.300956,0.3278132 0,0 z m 4.8,0.3 v 0.1 z m 44.8,52.3 c -0.74659,-6.64582 -2.0109,6.218051 -3.33303,2.363338 -0.22347,4.767971 -1.50062,9.219525 -3.33457,13.590734 -1.55636,5.608219 5.17245,0.895248 4.50718,-2.322895 0.7989,-4.267262 2.96174,-8.376314 2.74545,-12.715748 l -0.23565,-0.478564 z M 9.1,30.8 c -1.8646078,0.005 -0.068901,2.593914 0,0 z m 96.3,24.8 c 1.5224,-2.144949 -0.73741,-2.81336 0,0 z M 13.2,90.1 c -0.01979,1.272393 1.781315,0.728482 0,0 z m 93.1,-35.4 c 0.91752,-0.857505 -0.75274,-0.11476 0,0 z"
         id="path9" />
      <path
         d="M106.7 62a.6.6 0 0 0 .1-.5c0-.1-.1-.2-.1-.1h-.2v.2c0 .4.1.5.2.4zm.1-8.2h-.1v.6a1 1 0 0 0 .1-.6zM17.1 92.6h-.2v.2l.2.2h.2v-.2zm86.6-33.3c0-.1 0-.1-.1-.1zM9.9 86.5l.5.5-.4-.6z"
         id="path11" />
      <circle
         cx="10.5"
         cy="87.1"
         transform="rotate(-24.8 10.4 87.159)"
         id="circle13" />
      <path
         d="M9.7 30.1h-.1v.2-.2h.1zm83.2-6.6l-.2-.3h-.1zm-14.7 77.1zM5.9 32.2zm-.1.2a.3.3 0 0 0 .1-.2v.2zm1.9-4.9zM61.5 2.4zm42.8 58.2v.1-.1zM16.4 92.5h-.1c.1.1.2 0 .1-.1zm.2.7h.1l-.1-.1v.1zm73.9-71.3zm15.2 34.4zM14.6 91.7zm92.1-37zm-.8 11.4zM34.6 0z"
         id="path15" />
    </g>
  </g>
  <g
     id="SvgjsG2686"
     featurekey="nameFeature-0"
     transform="matrix(2.284354285447385,0,0,2.284354285447385,27.980055421585643,-5.609520280720151)"
     fill="#ffffff">
    <path
       d="M9.6 16.48 l-0.32 4.24 c-0.08 1.8 2.6 1.96 2.72 0.2 l0.24 -4.28 c0.12 -1.76 -2.56 -1.96 -2.64 -0.16 z M0.48 11 l0 0 c0.04 0 20.48 -0.32 20.56 -0.2 c1.28 1.12 0.96 27.8 0.12 28.56 c-0.4 0.32 -4.64 0.56 -9.2 0.6 c-0.84 -3.84 -0.2 -8.32 -0.2 -8.32 c0.24 -1.8 -2.44 -2.12 -2.64 -0.4 c0 0.04 -0.64 4.52 0.16 8.76 c-4.56 -0.04 -8.68 -0.24 -8.92 -0.64 c-0.8 -1.44 0 -28.28 0.12 -28.36 z"
       id="path20" />
  </g>
</svg>
