<svg xmlns="http://www.w3.org/2000/svg" width="16" height="16" xmlns:v="https://vecta.io/nano"><path d="M5.766-.009c-.484.145-.953.203-1.299.612C4.399.595 4.3.62 4.217.645c-.37.194-1.096.205-.924.835-.461.099-.843.813-.628 1.253-.277.427-.713.857-1.014 1.36-1.335 2.096-1.406 4.951-.087 7.07-.523.324-1.063 1.018-.565 1.605.368.4.879.347.929.966.582.34.911 1.109 1.692 1.134.353.699 1.317.316 1.796.881.578.163 1.12.293 1.75.022.406.36 1.212.336 1.387-.248.202-.213.975.51 1.471.207.643-.09.957-.819 1.62-.495.489-.255 1.051-.442 1.317-.87.757-.159.82-1.108 1.493-1.434.091-.423.583-.574.528-1.009.294-.587.368-1.261.392-1.91.112-.69-.465-1.21-1.109-1.295-.251-.565.083-1.588-.181-2.32-.419-2.19-1.988-4.158-4.079-4.959-.243-.264-.819.068-.654-.534-.031-.363-.68-.347-.68-.347.069.049-.036.05 0 0-.267-.463-.865-.532-1.24-.381C6.949.004 6.455.003 6.015.151c-.082-.045-.144-.157-.249-.161zM4.217.645l.039-.018c-.255.099-.174.059-.039.018z" fill="#fff"/><path d="M5.759.43h0c-.028 0-.055.037-.055.076s-.034.169-.049.186c-.006.007-.099-.018-.223-.06-.139-.046-.223-.068-.243-.063-.033.009-.095.1-.154.233-.033.074-.038.097-.038.192 0 .061-.006.111-.012.115-.054-.015-.105-.037-.152-.066-.192-.102-.274-.1-.274.006 0 .055-.014.053-.053-.006S4.432.97 4.391.998c-.016.01-.03.024-.03.029 0 .017-.061.039-.11.039-.067 0-.09.026-.083.097a.48.48 0 0 0 .038.128c.026.056.029.074.017.081-.029.018-.079.01-.194-.031-.136-.049-.245-.073-.286-.063-.035.009-.061.057-.045.084.006.01.055.047.108.082.121.079.234.169.337.27.007.012.011.033.011.047 0 .038-.034.097-.056.097s-.112-.056-.173-.112c-.056-.051-.088-.059-.118-.028s-.022.066.039.122c.044.041.055.057.044.067s-.043-.002-.136-.055c-.128-.072-.17-.082-.204-.048-.016.016-.019.034-.013.08.009.079-.008.084-.113.035-.093-.043-.126-.047-.153-.019s-.024.061.015.106c.063.074.128.169.119.177s-.033-.005-.064-.02a.43.43 0 0 0-.114-.034c-.048-.006-.061-.003-.083.019-.036.036-.033.062.017.136l.043.069c-.024.003-.048.002-.071-.003-.058-.007-.075-.004-.092.012-.032.032-.025.063.028.121a.33.33 0 0 1 .049.061c0 .005-.011.019-.025.032-.047.047-.025.108.079.211.035.035.072.067.112.096.062.043.067.065.02.089-.062.032-.229.079-.313.087-.119.012-.158.058-.109.128.02.027.019.03-.002.043-.064.038-.085.085-.05.12.009.009.068.035.131.057a.78.78 0 0 1 .13.053c.026.022-.007.033-.092.033-.06 0-.081.006-.1.025-.033.033-.03.061.012.12a.36.36 0 0 1 .037.057c0 .004-.022.011-.048.019-.053.014-.086.041-.086.069s.061.143.111.202c.019.02.035.043.047.067-.023.033-.05.063-.079.091-.056.057-.079.09-.079.112 0 .043.053.101.125.138s.069.034.015.162c-.037.088-.034.13.011.15.023.01.041.009.079-.006.044-.017.054-.018.092-.002.025.01.051.016.078.018.019 0 .04.005.046.01a.26.26 0 0 0 .061.026c.026.009.058.022.069.029a.5.5 0 0 1 .109.146c0 .009.013.034.029.056.019.03.034.063.042.097.017.079.027.258.015.258-.006 0-.026-.019-.044-.043s-.038-.04-.044-.036c-.013.009.025.077.077.137.026.031.034.052.034.095s.005.055.018.055c.033 0 .044.043.08.319.011.087.01.112-.003.138s-.014.054-.007.124l.009.092-.059.057c-.032.031-.068.08-.081.11l-.023.052.075.149.16.371c.1.263.112.286.173.352a.68.68 0 0 1 .133.306c0 .027.009.096.018.153.025.141.024.205-.006.253s-.043.048-.149.056c-.051.004-.097.018-.174.056-.12.06-.141.087-.141.19 0 .078.062.26.116.337.018.026.037.065.043.087a3.31 3.31 0 0 0 .135.376l.092.23c.061.167.194.369.288.436a1.41 1.41 0 0 1 .234.327c.012.032.022.075.022.095a.53.53 0 0 0 .105.218c.051.061.09.075.203.075.104.011.206-.033.27-.115.038-.039.074-.066.081-.061.015.009.041.065.079.178l.066.159.038.079-.009.257c-.007.22-.006.266.012.318.011.033.026.102.032.152l.019.129c.006.031-.001.044-.046.092-.012.013-.026.023-.038.034-.083.028-.144.083-.197.142a1.93 1.93 0 0 1-.358.173.67.67 0 0 1-.106-.114c.014-.042.023-.096.028-.153.084-.022.18-.071.344-.166.096-.055.1-.072.06-.229-.025-.097-.026-.125-.02-.347.009-.29.008-.292-.088-.271-.117.02-.237.019-.354-.005-.169-.047-.34-.255-.384-.47-.009-.044-.024-.094-.032-.11a.91.91 0 0 0-.151-.188c-.035-.024-.17-.194-.241-.305-.03-.047-.079-.149-.107-.226l-.093-.22a1.01 1.01 0 0 1-.06-.152c-.028-.109-.091-.274-.122-.323a1.29 1.29 0 0 1-.076-.171.54.54 0 0 1-.048-.269c0-.124.004-.148.03-.201.055-.111.184-.211.35-.27.064-.023.083-.035.081-.051l-.01-.102c-.009-.092-.04-.159-.134-.294-.046-.066-.085-.149-.151-.322l-.167-.387c-.114-.226-.116-.309-.01-.481.045-.075.054-.098.062-.184.015-.156.009-.276-.018-.306-.031-.035-.047-.068-.061-.132a.48.48 0 0 0-.067-.135.32.32 0 0 1-.03-.344c.014-.033.013-.043-.006-.071-.03-.046-.071-.058-.209-.061s-.191-.021-.269-.098-.097-.13-.097-.251c0-.1-.002-.106-.045-.165a.35.35 0 0 1-.028-.374l.032-.061-.034-.081c-.044-.109-.047-.228-.007-.305.027-.053.035-.088.018-.088s-.212.252-.35.447c-.184.262-.341.529-.5.847-.359.719-.547 1.369-.639 2.198a8.45 8.45 0 0 0 0 1.257 6.16 6.16 0 0 0 .625 2.174c.135.274.273.515.425.741-.286.231-.574.459-.811.737-.253.369.092.903.534.818.239-.052.448-.279.247.07-.247.413.138 1.014.624.884.186.499.762.792 1.267.709.047.54.724.457.962.423.222.485.824.375 1.203.545.396.269.876-.355.856-.447-.025.543.733.826 1.067.4.262-.361.146-.836.197-1.254.045-.258-.108-.797.202-.363-.143.295-.15.919.248 1.206.587.612 1.748.456 2.163-.276.351.334.777-.038 1.011-.196.479.137.54-.604.658-.632.493.229.716-.368.813-.619.681-.131.638-.91 1.079-1.247-.008-.371.374-.653.318-1.048.181-.437.129-.953.049-1.408-.219-.368-.729-.318-1.046-.501-.001-.126-.061-.238-.148-.325a6.51 6.51 0 0 0-.005-2.073 6.34 6.34 0 0 0-3.015-4.4c-.207-.124-.68-.36-.71-.355-.017.003-.025.022-.032.077l-.01.073.071.064a.4.4 0 0 0 .101.072c.107.035.21.081.306.139.172.117.266.232.368.45.056.118.071.139.181.248.151.149.182.201.195.324.016.154.038.219.082.254.022.017.055.057.073.088.029.05.034.07.034.162 0 .097.002.107.037.149.091.11.116.171.13.301a.69.69 0 0 1-.001.193c-.021.114-.02.117.055.156a.38.38 0 0 1 .101.077c.025.03.042.041.07.041.12 0 .252.08.357.218.165.216.267.409.327.619.048.166.058.271.078.812l.023.396c.026.167.041.36.035.452-.022.353-.08.601-.18.762-.084.137-.151.211-.267.294-.121.087-.25.13-.417.141l-.116.008.002 1.198.023 1.285c.017.07.019.191.013.678-.075.046-.171.071-.27.097l-.016-.774c-.024-.105-.025-.139-.017-1.002l-.004-.929c-.006-.02-.009-.214-.008-.432l.004-.397.241-.001.241-.001.094-.045c.111-.053.193-.131.264-.25a.9.9 0 0 0 .112-.341 1.12 1.12 0 0 1 .019-.163c.021-.119.02-.235-.006-.446l-.037-.464c0-.281-.026-.629-.057-.757-.057-.235-.278-.616-.388-.669-.031-.015-.075-.022-.146-.021-.088 0-.109.005-.166.037-.079.044-.088.044-.109.01s-.005-.051.064-.076c.061-.021.069-.043.017-.047-.046-.005-.057-.038-.013-.044.035-.005.035-.023 0-.034-.085-.026-.228-.155-.261-.233-.025-.059-.021-.075.025-.118.028-.027.044-.054.049-.089l.008-.049-.052-.011c-.028-.007-.054-.018-.056-.025s.018-.028.045-.046.049-.038.049-.044-.029-.012-.064-.012c-.079 0-.11-.015-.073-.035.018-.008.037-.013.057-.013s.031-.006.031-.012a1.25 1.25 0 0 1-.128-.116l-.104-.104.061-.059c.033-.032.061-.067.061-.077-.001-.029-.109-.113-.155-.12-.025-.004-.05-.018-.061-.033-.016-.025-.014-.029.02-.064.049-.05.047-.067-.01-.084s-.068-.03-.093-.099-.009-.086.057-.086c.026 0 .047-.003.047-.008 0-.014-.082-.101-.192-.202-.067-.061-.084-.089-.166-.256s-.097-.194-.168-.259a.89.89 0 0 0-.334-.18c-.064-.021-.101-.043-.152-.09l-.114-.097c-.096-.073-.11-.131-.08-.349.008-.059.01-.12.006-.138-.017-.069-.092-.048-.228.065l-.075.062-.032-.03a.5.5 0 0 0-.094-.061c-.05-.025-.069-.044-.104-.105l-.095-.145c-.072-.097-.1-.212-.1-.414 0-.147-.015-.157-.166-.114a1.5 1.5 0 0 1-.184.036l-.135.019-.038.008L8.337.94C8.313.875 8.293.807 8.293.791c0-.033-.029-.067-.058-.067a1.47 1.47 0 0 0-.17.055c-.143.052-.212.066-.212.045 0-.005.027-.063.061-.131.066-.131.071-.154.042-.184s-.054-.023-.134.026L7.603.66l-.189.114c-.054.044-.082.044-.1.001-.054-.13-.079-.173-.122-.214-.027-.026-.056-.045-.063-.045-.031.001-.069.034-.139.122s-.234.244-.257.244-.089-.236-.089-.319c0-.043-.004-.084-.009-.091C6.617.449 6.568.429 6.54.436s-.11.114-.165.224c-.032.063-.044.077-.069.077-.05 0-.175-.057-.227-.103C6.053.61 6.021.59 6.009.59c-.031 0-.061.032-.062.065-.001.065-.042.071-.102.014-.026-.027-.029-.04-.029-.115 0-.087-.017-.124-.056-.124zm-.353.428h0c.054 0 .077.034.091.136.019.133.043.234.056.238.007.002.051-.034.097-.081.083-.084.11-.098.135-.074.009.009.027-.01.06-.058.071-.105.092-.126.131-.126s.083.039.083.079c0 .017-.011.051-.025.076s-.025.064-.025.087-.008.053-.021.077c-.018.031-.019.041-.005.08.009.025.028.055.043.066.03.026.026.031-.075.099a.53.53 0 0 0-.097.084.33.33 0 0 1-.049.05c-.009.006-.015.027-.015.049s-.011.06-.025.085-.019.045-.012.045c.031 0 .232-.14.284-.199.011-.013.022-.035.022-.048s.02-.046.044-.073c.032-.035.04-.052.03-.061-.025-.025-.013-.043.065-.098.043-.03.08-.063.084-.073s.033-.026.065-.037a.28.28 0 0 0 .086-.045c.015-.014.036-.023.046-.019.02.008.025.042.009.063a1.2 1.2 0 0 1-.201.137c-.046.02-.074.066-.063.106.011.045.034.05.087.019.13-.076.236-.166.236-.202 0-.025.017-.038.114-.084.09-.044.129-.055.177-.055.056 0 .063.004.074.03.013.035.023.038.056.012.023-.018.021-.021-.041-.077-.034-.032-.062-.068-.062-.08 0-.037.039-.092.076-.107.047-.02.082-.008.152.05.038.031.066.046.078.041s.032-.008.048-.008.041-.005.053-.011c.018-.009.031-.007.059.014l.036.026.022-.027c.029-.036.062-.024.062.024 0 .042-.064.144-.104.165a.28.28 0 0 0-.061.055c-.042.05-.025.052.086.008s.127-.026.05.052c-.059.059-.071.09-.038.09A.65.65 0 0 0 7.63 1.2c.023-.032.064-.032.064-.001-.01.034-.027.066-.049.095l-.049.07.028.021c.031.024.024.037-.033.056l-.06.022c-.021.009-.021.007-.007-.017s.013-.029.002-.041-.009-.022.009-.045c.03-.039.02-.051-.016-.018-.045.042-.102.064-.161.064-.064 0-.077-.013-.056-.062.009-.02.011-.04.008-.044-.013-.013-.123.022-.173.055s-.048.035-.034.062c.018.036.011.049-.022.049-.013 0-.047.02-.075.044s-.066.047-.086.052c-.029.008-.041.021-.058.07-.047.135-.021.155.099.073.046-.032.084-.062.084-.069s.015-.011.034-.011.043-.007.061-.019c.049-.035.057-.01.008.026l-.058.044c-.006.005-.005.019.002.031s.015.032.019.043c.006.018.011.019.057.003.027-.009.057-.014.063-.009s.058.009.112.01c.094.003.1.001.134-.033s.034-.037.014-.051-.021-.017 0-.048.014-.04-.039-.019c-.019.008-.064.015-.101.017l-.092.008c-.03.005-.037-.043-.009-.065.014-.012.02-.01.029.006.017.03.04.026.131-.021.163-.084.271-.112.304-.079.01.01.03.006.075-.015s.061-.033.055-.053a1.29 1.29 0 0 0-.09-.189c-.017-.028-.023-.055-.019-.079.01-.057.03-.072.083-.064.044.006.047.005.054-.03s.06-.071.112-.071c.012 0 .033-.011.045-.025.026-.028.105-.034.126-.009.007.009.016.053.021.098.008.075.011.082.032.076.026-.009.059.013.059.04 0 .009-.021.026-.045.036l-.092.043c-.066.036-.091.023-.134-.071-.05-.106-.074-.086-.029.025.035.087.033.107-.01.131s-.047.047-.011.061c.046.018.061.015.139-.025.027-.015.056-.027.085-.037a.62.62 0 0 0 .101-.054c.081-.049.096-.054.171-.055.045 0 .115-.007.157-.014s.081-.01.091-.007c.025.009.021.073-.008.108l-.025.03.047.008c.026.004.053.015.061.024a.57.57 0 0 1 .051.218c0 .068-.021.09-.083.088-.034-.001-.052-.01-.076-.038s-.057-.044-.116-.063a.59.59 0 0 1-.1-.039c-.021-.016-.037-.004-.064.051-.013.026-.041.059-.061.073-.057.041-.048.06.025.059.054-.001.066.004.1.037s.035.042.024.053c-.024.024-.018.032.025.037.074.008.037.058-.055.077-.019.004-.034.012-.034.02 0 .027.203-.021.288-.068.031-.018.06-.029.063-.026s-.034.034-.088.059c-.02.009-.037.025-.037.035 0 .026.074.03.111.007s.043-.025.043.009c0 .039.023.058.069.058.086 0 .051.062-.044.078-.101.016-.046.042.103.047.06.003.073.007.072.024-.002.024.043.039.086.027.02-.005.031-.019.036-.044.009-.046.033-.055.109-.039a.33.33 0 0 0 .114.003c.031-.006.066-.005.084.002.026.009.03.019.03.065s.003.054.04.064c.057.016.081.064.061.117-.024.06-.023.076.005.08a.38.38 0 0 1 .066.024c.03.013.044.015.047.006.009-.026.058-.014.13.028.039.024.076.043.082.043s.055.017.109.038c.132.051.268.144.304.209.027.048.027.051.007.067-.034.025-.094.032-.217.026-.117-.006-.205-.036-.22-.077-.009-.025-.031-.025-.041 0s.049.086.12.122c.082.043.214.042.323-.002.089-.036.11-.033.122.016.005.019.018.055.031.079.036.071.031.085-.023.076-.026-.005-.079-.021-.12-.037-.152-.06-.152-.032-.002.061l.144.098a.21.21 0 0 0 .067.039c.027.009.046.029.073.08.048.092.037.102-.075.064-.105-.036-.135-.041-.137-.026-.001.007.026.021.058.032.087.029.114.051.196.157s.114.17.103.201c-.009.022-.035.017-.102-.02-.031-.017-.061-.023-.11-.02l-.067.004.126.064c.128.065.157.094.12.114s-.025.032.041.073c.079.048.095.077.061.105-.014.013-.023.03-.025.049 0 .038-.042.077-.083.077-.032-.002-.064-.008-.095-.018l-.07-.018c-.006 0 .004.026.022.057.049.089.042.142-.024.164-.083.027-.185-.033-.242-.144-.024-.034-.053-.063-.087-.088-.081-.063-.127-.134-.136-.217-.007-.055-.005-.062.026-.087.053-.042.096-.034.164.028s.075.065.075.033c0-.059.054-.064.183-.021.085.028.111.03.111.007 0-.009-.081-.059-.184-.112-.118-.06-.034-.159.119-.141l.066.008-.019-.029c-.022-.034-.142-.13-.195-.157a.36.36 0 0 0-.078-.027c-.067-.014-.077-.095-.017-.141.036-.028.085-.031.144-.007.087.036.038-.004-.071-.059-.155-.078-.253-.142-.272-.181-.012-.025-.03-.035-.069-.041-.061-.013-.118-.039-.168-.076l-.03-.021.032.036c.059.065.087.138.08.201l-.007.056.057.021c.123.044.173.097.149.16-.017.044-.073.061-.187.055-.053-.001-.106-.011-.155-.031l-.11-.049c-.096-.042-.179-.147-.163-.208.007-.026.037-.039.096-.04l.037-.001-.039-.033a.4.4 0 0 1-.059-.065c-.043-.068-.02-.199.038-.214.029-.008.102.022.162.065.028.021.029.021.019-.009a.23.23 0 0 1-.009-.07c.002-.038 0-.04-.043-.04-.073 0-.201-.025-.231-.044-.035-.023-.036-.023-.044.012-.004.016-.018.033-.032.038-.023.008-.023.01-.006.043.021.041.024.089.006.123-.009.017-.026.024-.059.024-.046 0-.046 0-.045.05s-.007.061-.06.078c-.023.008-.022.01.012.041l.079.066c.039.03.043.039.043.095 0 .096-.042.109-.157.051-.023-.014-.048-.024-.074-.03-.018.018.033.101.116.186.045.045.087.093.125.144.043.067.077.094.181.144a.9.9 0 0 1 .171.114l.12.098a2.99 2.99 0 0 1 .308.339c.024.045.093.146.118.172a.38.38 0 0 0 .083.058c.062.033.079.044.161.096l.361.214c.036.019.074.035.113.049.079.028.174.099.174.13 0 .025-.045.022-.09-.006l-.154-.075c-.063-.028-.212-.114-.329-.188l-.274-.169a.51.51 0 0 1-.198-.197c-.099-.15-.264-.326-.385-.411l-.098-.079c-.039-.033-.083-.062-.129-.085-.091-.044-.156-.096-.173-.139-.021-.035-.047-.068-.078-.096-.131-.128-.16-.167-.195-.266-.053-.149-.053-.151-.016-.151.017 0 .079.025.136.055l.11.055c.005-.026-.044-.073-.104-.12-.124-.097-.162-.144-.134-.162.009-.006.049-.011.088-.011.076 0 .084-.009.045-.043-.029-.026-.032-.061-.005-.072.01-.004.049-.008.085-.008s.066-.004.066-.009c0-.029-.055-.089-.114-.125-.1-.061-.085-.099.021-.055.049.021.069.023.069.009a1.02 1.02 0 0 0-.134-.098c-.074-.049-.134-.095-.134-.1s.009-.015.022-.022a.9.9 0 0 1 .336.104.44.44 0 0 0 .123.058c.079.026.128.032.304.039.141.006.207.004.202-.004s-.046-.016-.093-.02a1.01 1.01 0 0 1-.282-.07.69.69 0 0 0-.089-.029c-.019-.004-.054-.028-.079-.054-.071-.073-.09-.079-.21-.069-.162.012-.22-.028-.129-.088.054-.035.064-.034.18.004l.095.031.036-.028c.02-.016.036-.031.037-.035s-.026-.014-.058-.025c-.056-.018-.058-.02-.061-.069l-.004-.051-.053.02c-.049.018-.056.018-.084-.001-.038-.025-.07-.028-.046-.006s.018.068-.007.079c-.011.006-.101.009-.199.009-.141 0-.184-.004-.214-.02l-.089-.042c-.059-.025-.071-.052-.059-.128.009-.058-.004-.061-.056-.018-.045.039-.072.039-.118 0-.02-.017-.052-.032-.072-.035-.066-.031-.122-.079-.162-.139 0-.021.044-.052.102-.072.076-.026.075-.047-.001-.036s-.113.031-.179.105c-.037.041-.063.061-.075.056-.023-.009-.024-.067-.002-.099.009-.013.021-.037.026-.051.008-.024.004-.027-.023-.027a.36.36 0 0 1-.087-.019.13.13 0 0 0-.113 0c-.031.01-.076.019-.099.019s-.071.009-.103.018-.061.016-.092.018c-.017 0-.065.018-.107.04-.069.037-.078.039-.107.023s-.035-.015-.065.016l-.033.033.037-.008c.026-.006.042-.002.053.012.021.026.048.025.119-.004a.67.67 0 0 1 .111-.031c.062-.01.068.006.02.056-.018.019-.029.042-.026.052.006.016.014.016.065 0s.06-.017.076.007c.022.032.074.032.167.001s.095-.031.088.012c-.003.021-.001.04.004.043s.041-.006.079-.021c.055-.021.075-.024.093-.012.012.008.033.014.045.014.028 0 .038.021.029.066-.007.033-.005.034.028.026l.081-.015c.05-.007.049-.009.046.079-.002.045.001.052.029.06.017.005.051.005.074 0 .04-.004.08-.002.119.006.079.014.204.065.204.084 0 .006.022.019.048.03.035.014.054.031.065.06.009.023.041.061.07.086l.054.045-.076-.003c-.042-.002-.079 0-.083.005-.021.021.023.056.093.078.056.017.094.039.141.082.036.033.065.067.065.077s-.019.025-.043.035-.043.027-.055.049-.019.031-.075.031c-.062 0-.062 0-.054.034.005.023.009.046.01.07.002.031-.003.037-.031.041-.059.007-.057.052.004.139s.109.195.109.242c0 .032.026.056.173.168.038.028.076.068.083.087.017.042.108.121.182.158.107.063.208.137.3.22.154.13.17.146.216.212.039.057.04.06.018.076s-.031.013-.085-.009l-.214-.084a1.12 1.12 0 0 1-.172-.078c-.011-.01-.044-.022-.075-.026-.053-.007-.295.007-.553.031-.126.012-.137.011-.226-.018-.163-.053-.531-.074-.631-.035-.032.012-.064.021-.097.027a.32.32 0 0 0-.075.023c-.014.008-.038.01-.052.007s-.044 0-.064.009c-.035.014-.04.013-.06-.012-.026-.035-.042-.026-.079.046a.6.6 0 0 1-.166.185c-.032 0-.008-.066.054-.148.088-.116.075-.143-.034-.071-.074.049-.093.043-.084-.031.008-.067-.003-.07-.077-.023-.066.043-.081.073-.09.186s-.03.12-.066.013c-.014-.044-.035-.083-.046-.09-.031-.019-.089.033-.117.106a.86.86 0 0 0-.054.225c.004.02-.032.089-.046.089s-.026-.033-.026-.087c0-.067-.023-.056-.057.027-.022.054-.032.067-.058.07s-.033.012-.039.049c-.011.068-.015.076-.039.076-.012 0-.031.016-.043.037-.016.028-.029.037-.058.037s-.039.007-.044.03-.004.042 0 .062.001.04-.019.061l-.027.029.063.064c.073.074.079.105.03.153a.74.74 0 0 1-.276.108.49.49 0 0 1-.093-.155c0-.022-.054-.086-.096-.113l-.042-.026-.035.039c-.036.04-.072.051-.072.023 0-.009.017-.032.037-.051l.037-.035-.07-.071c-.051-.052-.079-.071-.103-.071-.032 0-.072.027-.072.05s-.03.011-.046-.013-.026-.025-.115-.022c-.098.004-.099.004-.109.039-.012.045-.029.056-.091.056-.034 0-.057.008-.072.025s-.034.025-.047.026c-.079.003-.163.073-.149.125.004.015.038.061.075.104s.064.082.061.089c-.008.012-.093-.054-.164-.129-.039-.041-.047-.044-.112-.044-.051 0-.092.009-.149.036-.093.042-.114.069-.085.111l.02.028-.051-.009c-.048-.008-.054-.006-.121.057-.039.036-.122.095-.186.131-.163.093-.183.108-.183.14 0 .015-.01.041-.023.057-.047.061-.075.131-.075.193 0 .068-.013.082-.106.115h0a.73.73 0 0 1-.118.026c-.085.01-.086.009-.077-.15.026-.394.026-.376-.021-.503-.054-.147-.101-.341-.118-.482l-.031-.196a1.19 1.19 0 0 1-.018-.198.67.67 0 0 0-.017-.165c-.028-.086-.005-.209.053-.278.049-.058.123-.181.123-.204.03-.139.096-.268.19-.374.009-.006.017-.015.017-.022 0-.019.052-.084.067-.084.026 0 .089-.079.116-.147.03-.073.098-.154.139-.166.092-.025.19-.062.19-.073s.018-.03.041-.052c.035-.034.049-.039.103-.039h.063l-.008-.037a.09.09 0 0 1 .014-.069.3.3 0 0 0 .031-.068c.017-.06-.025-.038-.059.03-.016.032-.044.068-.061.079s-.06.047-.093.079a.39.39 0 0 1-.134.084.52.52 0 0 0-.303.255 1.18 1.18 0 0 1-.114.159c-.128.149-.192.245-.198.299a.59.59 0 0 1-.019.093.56.56 0 0 1-.122.197 1.02 1.02 0 0 0-.091.064c-.049.038-.061.052-.044.055.026.005.052.026.052.039 0 .019-.063.085-.081.085-.01 0-.021-.01-.025-.023s-.028-.031-.055-.042c-.04-.016-.048-.025-.044-.047s.026-.039.096-.072c.095-.045.183-.126.183-.166 0-.011.013-.044.03-.07.038-.061.04-.084.003-.041-.051.061-.114.083-.232.083s-.129-.008-.114-.064c.005-.021.029-.038.093-.064.088-.037.09-.052.007-.054-.065-.002-.085-.044-.045-.096.027-.036.183-.079.32-.088.086-.006.104-.01.108-.028s-.018-.031-.088-.063c-.051-.023-.093-.047-.093-.054 0-.016-.116-.068-.195-.087-.149-.036-.168-.166-.02-.141l.157.019a.47.47 0 0 1 .184.048c.043.021.09.038.104.038.069 0 .104.069.049.098-.021.011-.023.017-.009.032s.022.012.061-.033c.026-.028.046-.059.046-.066 0-.02-.022-.044-.089-.096-.058-.046-.069-.074-.046-.115.009-.016-.001-.04-.037-.096-.061-.096-.061-.125-.002-.173l.045-.038-.083.002c-.069.002-.086-.002-.1-.021-.009-.012-.018-.032-.018-.044-.001-.033.056-.091.125-.126.029-.014.056-.03.082-.048.01-.009.03-.019.044-.024s.028-.022.033-.044c.01-.05.085-.084.188-.084.064 0 .077-.004.077-.022.001-.046.045-.122.078-.13.026-.007.032-.015.032-.05 0-.068.019-.104.055-.104s.053.033.064.129c.007.056.014.068.084.135.106.101.103.15-.007.161-.034.003-.062.008-.062.01s.011.026.026.052.024.066.022.101c-.003.044-.009.054-.036.063-.033.011-.075-.011-.159-.087-.028-.026-.157-.072-.157-.056 0 .003.006.016.012.029s.008.035-.006.066l-.022.038h.04c.022 0 .045-.006.053-.013s.023-.009.048.005a.86.86 0 0 0 .096.04c.034.011.071.028.084.037.02.014.033.007.114-.061.105-.09.151-.143.13-.15-.008-.003-.026-.014-.041-.026-.023-.019-.027-.04-.036-.155l-.023-.191a1.36 1.36 0 0 1-.015-.2c-.002-.153-.009-.169-.065-.139a.45.45 0 0 1-.264-.02l-.042-.025.003-.091c.002-.122.034-.243.093-.35.043-.075.056-.088.083-.089.037 0 .071.036.095.1.036.096.032.093.05.055a.13.13 0 0 1 .049-.052c.018-.009.047-.044.068-.088.03-.061.04-.071.074-.074s.043.003.059.027c.012.019.032.031.05.031.036 0 .089.026.165.081l.062.042c.004 0 .01-.037.015-.082.012-.123.053-.223.1-.254.038-.024.039-.027.04-.113 0-.076.005-.093.032-.125s.042-.038.073-.038zm1.566.085c-.038 0-.024.033.036.084.053.045.059.047.062.024.005-.031-.065-.109-.098-.109zM5.4.945c-.032.04-.026.121-.002.193.013.04.02.082.016.107-.007.042.001.048.033.029.015-.009.015-.024.001-.107l-.025-.153C5.417.968 5.41.946 5.4.945zm2.684.06c-.012 0-.014.078-.002.09h0c.031-.014.017-.09.002-.09zm-.807.015c-.016 0-.037.006-.062.016-.035.014-.051.032-.068.071s-.034.058-.091.085a.56.56 0 0 0-.124.088c-.054.054-.054.055-.022.055.038 0 .162-.048.162-.063s.101-.105.193-.169c.064-.045.06-.083.011-.082zm-1.333.012c-.008-.001-.023.015-.035.038s-.014.026.012.004c.014-.013.026-.028.026-.034zm-.061.094c-.009.005-.03.064-.031.096-.001.015.004.027.009.027s.026-.072.025-.116zm.975.076c-.009 0-.029.009-.079.035a.36.36 0 0 1-.097.037c-.013 0-.025.006-.025.012s-.022.023-.048.037c-.066.034-.07.046-.026.086.021.019.038.039.038.044s-.019.026-.043.046c-.036.035-.063.079-.079.127l-.036.095c0 .016.016-.003.055-.062.044-.07.05-.074.079-.056.011.007.043-.001.092-.025.03-.016.062-.027.096-.035.011 0 .035-.014.051-.03s.044-.03.06-.03.036-.006.051-.016.006-.016-.091-.012-.117.008-.149.035c-.044.037-.064.04-.044.006.012-.021.012-.026-.002-.036s-.011-.014.015-.026.033-.023.033-.06c0-.051.026-.08.107-.121.028-.014.052-.031.052-.038zm-1.138.005l-.054.044c-.05.042-.054.048-.053.104a.52.52 0 0 0 .01.096c.009.034 0 .05-.083.162l-.093.135c0 .006.008.013.017.017s.021.022.026.041.014.042.022.05c.022.026.044.017.077-.03.017-.025.031-.049.031-.054l.065-.131.065-.122-.03-.008c-.03-.008-.03-.009-.024-.12a1.18 1.18 0 0 1 .015-.149zm-.442.031h0c-.011-.001-.018.025-.034.104-.016.061-.018.125-.005.186.009.054.015.199.014.365l.007.287c.026-.009.048-.104.06-.182.009-.061.042-.095.085-.087.036.007.036.006.017-.047-.009-.024-.026-.043-.042-.046-.054-.013-.07-.088-.072-.334-.002-.149-.007-.228-.016-.237zm3.204.039l-.027.002a.37.37 0 0 0-.139.041l-.118.064c-.063.034-.093.077-.031.044.025-.012.042-.015.057-.007.028.016.026.024-.015.072-.02.023-.035.043-.032.045a.25.25 0 0 0 .117-.058c0-.022.08-.048.147-.048a.18.18 0 0 1 .107.029.53.53 0 0 0 .093.045c.026.009.057.028.067.044.027.038.038.034.038-.012 0-.071-.023-.131-.052-.137a1.06 1.06 0 0 0-.204-.024c-.072-.002-.079-.005-.083-.028s.005-.029.043-.04c.076-.021.088-.036.034-.034h0zm-2.604.058c-.026 0-.051.023-.051.045s.007.02.044-.004.039-.042.009-.042zm-1.074.042c-.003.003.013.034.034.07l.075.132.062.106c.027.04.058.053.058.025 0-.021-.043-.103-.079-.156a1.2 1.2 0 0 0-.149-.179zm2.65.045h0c.007.005.001.014-.009.023s-.019.01-.019.003c0-.013.018-.027.027-.026zm.434.018c-.009 0-.009.008-.005.027l.007.036h0c.001.002.022 0 .046-.005a.53.53 0 0 1 .079-.009c.02 0 .034-.007.034-.016s-.016-.016-.045-.016-.064-.005-.086-.011c-.014-.004-.024-.007-.029-.007zm-2.349.006a.21.21 0 0 0-.044.02c-.021.011-.053.017-.072.014-.034-.005-.034-.005-.043.083-.005.048-.005.095.001.103h0c.01.017.009.019.096-.096.061-.08.082-.123.062-.123zm1.734.012c.01 0 .019.006.019.012-.018.012-.026.007-.03 0zM4.99 1.46c-.004 0 .001.007.013.026s.031.034.044.039.032.021.044.037c.02.03.06.042.05.015-.005-.014-.083-.077-.135-.108zm-.512.002c-.008-.002-.015.007-.029.026a.56.56 0 0 0-.071.313c.004.016.022.035.042.043h0c.022.008.045.013.068.015l.034.001-.004-.183c-.003-.149-.008-.186-.024-.202zm1.925.007c-.007 0-.019.009-.027.018s-.009.018-.003.018.019-.009.027-.018.009-.018.003-.018zm.075.012a.29.29 0 0 0-.06.043c-.028.024-.063.043-.078.043-.03 0-.048.035-.025.049.013.008.012.016-.005.042-.011.017-.026.031-.033.031s-.018.017-.026.037c-.009.027-.02.036-.038.033-.034-.005-.043.026-.01.035s.033.026.005.036a1.93 1.93 0 0 0-.107.046c-.056.025-.114.046-.174.061-.047.011-.093.03-.134.055-.049.036-.131.056-.145.036-.005-.008-.017-.002-.031.013s-.031.026-.042.026-.018.005-.018.009a.23.23 0 0 1-.109.1c-.014 0-.037-.011-.05-.025s-.026-.025-.029-.025-.009.026-.012.06-.016.066-.026.074c-.024.02-.087.02-.11.001-.016-.013-.019-.009-.019.033 0 .026.003.051.007.055a.26.26 0 0 0 .119-.059c.032-.053.1-.072.131-.036.012.015.021.013.058-.012.024-.016.048-.029.054-.029s.01-.009.01-.022.006-.042.013-.067c.01-.039.018-.045.047-.045.019 0 .042.009.05.019.014.017.02.015.049-.013.019-.018.049-.033.069-.034s.05-.014.07-.029.043-.027.052-.027c.031 0 .087.036.096.061.009.031.026.031.036.001.004-.013.033-.044.064-.07.046-.038.068-.047.113-.048.03-.001.073-.009.095-.018.031-.013.047-.013.08-.002.072.026.122.019.162-.023.044-.047.082-.062.15-.061.053.001.053.001.045-.037a.53.53 0 0 1-.008-.085c0-.026-.005-.047-.01-.047s-.036.039-.067.085c-.056.083-.094.109-.094.062 0-.012.027-.058.061-.099.089-.111.083-.123-.027-.056-.038.023-.082.057-.099.077-.026.03-.033.033-.055.02-.014-.009-.033-.015-.044-.015-.027 0-.023-.032.018-.132.036-.088.044-.124.028-.124zm.64.002c.002.031-.007.051-.016.06-.025.021-.025-.009 0-.042.009-.011.013-.017.015-.017zm-2.387.028c-.017.002-.039.025-.068.068-.037.054-.045.079-.045.126-.001.073.016.106.054.106.032 0 .067.028.067.055 0 .009.018.027.04.041h0c.052.032.062.032.055-.001l-.067-.339c-.007-.039-.018-.058-.035-.056zm1.424.002c-.011-.002-.016.009-.026.042-.015.049-.018.052-.206.201-.078.061-.145.092-.203.092s-.08.021-.048.039c.011.007.02.024.02.039s.003.031.008.035.044-.009.222-.089c.028-.013.052-.031.052-.042 0-.023.086-.067.131-.068s.06-.011.077-.049a.76.76 0 0 1 .061-.097l.047-.067-.046-.009c-.024-.004-.048-.012-.071-.022zm1.596.06c-.026.002-.092.044-.097.066s-.001.025.037.025c.026 0 .067-.014.099-.033l.056-.033-.041-.009c-.022-.005-.044-.011-.047-.015zm.304.009c-.004.001-.009.008-.019.019s-.024.034-.024.04c.035.01.049-.015.048-.048zm-3.595.002c.009-.001.018.003.028.011.017.012.018.025.006.091-.009.05-.021.08-.035.088-.03.016-.037.005-.037-.066 0-.08.012-.122.037-.124zm.407.096a.38.38 0 0 0 .01.079c.008.042.018.076.022.076s.015-.014.023-.032c.013-.028.01-.038-.018-.079-.018-.026-.035-.045-.037-.044zm.3.004c-.004.001-.009.01-.012.029-.006.028-.005.058.005.085l.015.043.004-.065c.003-.058-.002-.095-.01-.092zm1.857.114c-.014 0-.037.022-.099.096-.04.047-.047.051-.069.037s-.031-.009-.088.044c-.067.062-.096.063-.074.002.015-.041.016-.068.002-.068-.022 0-.123.1-.154.152s-.058.068-.073.044c-.004-.007-.001-.026.008-.043.024-.051.001-.052-.05-.002-.031.03-.055.044-.067.039-.018-.007-.018-.011-.001-.044.039-.075.011-.083-.056-.017-.048.047-.084.049-.084.005 0-.054-.044-.008-.102.107-.022.044-.04.063-.056.063-.025 0-.065-.048-.086-.103-.018-.047-.052-.036-.071.024s-.022.063-.053.036c-.021-.018-.027-.02-.032-.007s-.016.027-.028.04c-.022.022-.025.022-.065.003-.024-.011-.045-.017-.049-.013s.003.026.014.05c.035.073-.008.121-.062.07-.021-.02-.034-.025-.045-.016s-.042.026-.074.045l-.058.033-.021-.025c-.029-.034-.038-.031-.061.019-.017.035-.026.042-.047.037s-.034.004-.059.036c-.018.024-.041.043-.051.043s-.029.013-.042.028c-.016.021-.031.027-.054.023-.033-.007-.061.01-.082.051-.012.024-.012.025.009.006.039-.033.062-.035.095-.01.039.031.043.03.047-.009.003-.026.01-.033.033-.034s.032-.01.043-.043c.014-.044.029-.049.091-.03.023.007.029.004.035-.018s.015-.026.04-.024.048-.009.08-.036c.053-.044.114-.052.14-.021.009.01.029.017.047.015.026-.003.033-.011.04-.056.013-.076.019-.08.064-.054.026.015.046.02.057.013s.029-.008.044-.004c.026.007.027.003.027-.05 0-.042.006-.059.021-.064s.023-.001.026.009c.011.033.067.073.101.073s.038-.008.055-.049c.022-.053.036-.061.061-.027.014.02.018.019.051-.012.019-.019.039-.034.044-.034s.009.022.009.049.005.049.01.049a.22.22 0 0 0 .056-.055c.061-.074.073-.071.062.012-.005.042-.004.067.004.067a.55.55 0 0 0 .093-.11c.073-.099.105-.13.105-.099 0 .006-.01.035-.024.064-.04.088-.01.087.076-.002l.076-.079.005.04c.003.025.011.04.022.04s.018-.005.018-.011a.62.62 0 0 1 .145-.16c.012 0 .014.012.009.049-.009.057.011.066.05.023s.144-.109.154-.098.005.026-.003.044c-.012.032-.009.056.009.056.005 0 .026-.022.047-.047.03-.036.034-.047.018-.045-.022.002-.026-.028-.009-.069s-.021-.025-.109.04c-.114.084-.13.081-.092-.017.027-.074.027-.069.011-.069h0zm1.782.002c.021 0 .039.01.034.025h0c-.008.023-.026.025-.053.005s-.023-.018-.003-.026c.007-.003.014-.004.021-.004zm-3.825.06c-.008 0-.033.072-.033.096h0c0 .014.008.011.03-.009.028-.026.031-.027.061-.009.039.026.044.026.044-.005 0-.013-.008-.025-.017-.025s-.03-.011-.047-.025-.034-.025-.037-.025zm-1.309.113l.058.018c.011.003.024.014.027.026.013.034-.011.04-.052.012-.034-.024-.049-.053-.034-.055zm1.075.009h0c-.02 0 .024.434.048.474.005.008.003.026-.005.039s-.01.03-.006.037h0c.012.02.03.001.03-.031 0-.043.019-.048.065-.02l.041.025.058-.036c.031-.02.061-.046.065-.058.01-.028.027-.04.061-.04.026 0 .027-.006.027-.07v-.07l-.017.04c-.009.022-.026.04-.036.04s-.026.015-.034.032c-.024.048-.043.048-.072-.002l-.026-.044-.025.049c-.033.064-.052.07-.095.026-.027-.027-.036-.047-.036-.084 0-.069.009-.085.063-.114.036-.019.046-.03.041-.045s-.011-.034-.014-.052-.025-.042-.065-.064c-.032-.018-.062-.033-.068-.033zm.719.038c-.003.001-.005.009-.005.025s.006.022.011.018.009-.015.005-.026-.009-.018-.012-.017zm-.293.064c-.004.026-.001.033.003.029s.005-.014.001-.024zm-.177.033c-.014-.001-.021.066-.008.082s.038.02.049.008-.029-.09-.042-.09zm-.988.048c.012.019.007.025 0 .025-.013-.01-.013-.015-.011-.018zm-.087.04h0c.013-.002.026.01.026.028s-.031.024-.044.005c-.005-.008-.003-.019.005-.026zm.538.12l-.043.026c-.057.033-.068.079-.028.11.022.017.051.023.117.023.048 0 .089-.005.089-.01s-.021-.025-.046-.043-.049-.042-.067-.068zm-.23.184c-.054 0-.103.006-.107.017s.04.023.096.036.139.044.186.068c.098.052.104.054.104.031a.41.41 0 0 0-.146-.135c-.022-.011-.08-.017-.134-.017zm.774.115c-.039.005-.061.018-.067.03s-.026.023-.042.023c-.027 0-.055.029-.055.061h0c0 .016.033.017.043.001.004-.007.02-.012.035-.012.028 0 .067-.035.091-.08.009-.017.01-.023-.004-.022zm-.971.005h0c-.024.001-.043.01-.055.029a.18.18 0 0 1-.074.051c-.03.011-.058.026-.061.031s.056.01.132.01c.106 0 .145-.005.166-.019.04-.027.033-.05-.021-.079-.033-.017-.062-.026-.087-.025zm6.071.088c-.009 0-.021.003-.037.008-.03.008-.061.013-.093.014-.04 0-.044.003-.03.018s.032.023.053.028h0c.032.009.189.005.201-.005.002-.002-.016-.018-.04-.037s-.038-.027-.054-.027zm-5.781.07c-.024 0-.023.003.009.036s.032.039.018.056-.029.019-.079-.001c-.023-.009-.023-.008.003.025.015.019.027.051.027.072v.037l.037-.035c.027-.026.047-.035.078-.032s.044-.003.058-.031c.009-.019.017-.038.017-.042a.48.48 0 0 0-.167-.083zm-.304.037l.063.066c.035.037.075.069.09.072.076.015.075.007-.012-.074-.051-.047-.079-.064-.105-.064h-.035zm5.591.061c-.021.002-.023.026.004.07a.27.27 0 0 0 .139.119c.022.012.046.022.07.029.037.001-.049-.116-.132-.182-.036-.027-.064-.04-.08-.039zm-5.632.005c-.009.002-.018.008-.03.017-.035.028-.026.061.033.126.024.026.045.047.048.047.009 0-.019-.044-.038-.061-.01-.009-.019-.028-.019-.044 0-.027.011-.035.048-.029.015.002.014-.002-.001-.026s-.026-.033-.041-.031zm.097.106l.037.03c.038.032.131.044.147.018.005-.008-.012-.012-.043-.012s-.07-.009-.096-.018zm.008.122c-.013 0-.008.011.016.036s.04.033.046.029c.015-.009-.039-.065-.062-.065zm-.097.025c-.001.001.003.008.011.021s.021.027.026.027c.015 0 .011-.007-.017-.031zm5.645.034c-.018.001-.031.005-.037.013s.108.111.13.111c.007 0 .032.009.057.021l.07.029a.42.42 0 0 0 .175 0c.019-.012-.044-.056-.102-.069-.043-.015-.086-.034-.126-.056-.061-.032-.126-.05-.166-.049zm-5.852.468c-.071.002-.223.031-.223.047 0 .006.051.011.114.011.096 0 .117-.004.135-.024s.017-.026.008-.031-.017-.004-.033-.004h0zm-.002.121h0c-.01.003-.016.009-.015.013s.001.017.001.027c.027.002.027-.041.014-.042zm6.329.121c-.044.035.002.122.102.201.039.035.074.075.103.118a.34.34 0 0 0 .08.092c.035.017.073.02.073.006 0-.006-.015-.04-.034-.077-.044-.087-.289-.341-.325-.34zm.282.048h0c-.015.004-.009.023.01.051s.057.058.119.088c.142.069.192.05.093-.035a.61.61 0 0 0-.223-.104zm-6.885.028c.016-.001.03.002.047.008.037.012.043.019.04.046s-.021.042-.087.078c-.101.055-.117.06-.15.046s-.046-.053-.027-.088.045-.056.118-.078c.026-.008.044-.012.061-.012zm4.575.187l.226.008c.227.008.341.026.401.064.024.015.026.021.012.037s-.039.018-.157-.008a2.6 2.6 0 0 0-.263-.021l-.208-.009-.029.06c-.037.074-.077.096-.181.096-.066 0-.08-.004-.099-.027-.012-.015-.026-.027-.032-.027s-.032.024-.06.052c-.036.036-.074.069-.114.1s-.09.082-.121.125c-.061.081-.12.119-.139.089-.006-.009-.005-.026.002-.039.014-.026.009-.139-.007-.135-.006.001-.022.034-.034.073-.031.095-.058.119-.122.118-.038-.001-.057-.009-.074-.03s-.025-.026-.034-.009a.49.49 0 0 1-.176.177c-.051.021-.055.026-.046.053a.39.39 0 0 1 .009.084c0 .073-.038.104-.113.096l-.053-.006.04.035c.022.019.046.035.056.035.027 0 .018.034-.017.059l-.047.031c-.018.01-.042-.015-.042-.045 0-.014-.017-.039-.037-.056-.031-.026-.039-.042-.044-.097-.008-.079.008-.112.041-.089.09.062.128.079.139.063.007-.009.008-.031.004-.047-.016-.066-.019-.146-.006-.17s.021-.026.06-.019.049.003.102-.051c.067-.068.094-.126.109-.233s.04-.162.07-.162.039.022.039.126c.001.117.014.185.035.185.032 0 .086-.192.086-.307 0-.059.034-.11.065-.097.013.005.02.022.02.051 0 .051.01.053.059.012.038-.032.076-.041.076-.017 0 .008-.011.029-.026.049a.46.46 0 0 0-.06.194c0 .026.017.012.124-.096.137-.14.221-.192.275-.171.023.009.037.006.061-.012.017-.013.038-.021.048-.017.021.009.023.043.003.062s-.002.033.036.02c.02-.007.043-.029.055-.054s.036-.056.055-.072l.034-.029zm2.578.159c.048 0 .237.195.237.244 0 .019-.007.042-.014.049-.024.024-.121.017-.166-.011a.49.49 0 0 1-.09-.088c-.044-.056-.049-.068-.044-.111.008-.058.031-.084.076-.084zm.025.114c-.007.018.01.043.031.066.058.065.083.055.028-.011-.03-.036-.05-.055-.06-.055zm-1.846.184c.217 0 .268.027.338.179.092.2.13.359.098.415-.008.014-.014.053-.014.086a.52.52 0 0 1-.061.236c-.023.032-.108.091-.321.221a2.28 2.28 0 0 1-.394.183l-.293.114c-.149.06-.22.081-.299.091-.199.025-.275.01-.382-.069l-.16-.118c-.207-.153-.311-.295-.296-.406.014-.103.047-.156.131-.213a1.4 1.4 0 0 0 .122-.092c.081-.072.284-.177.566-.292l.33-.144.372-.148c.122-.039.155-.044.263-.044zm.77.183l.09.03a1.95 1.95 0 0 1 .553.34c.018.019.038.034.044.034.022 0 .063.08.063.124 0 .064.053.207.133.365.005.01.026.02.044.022.071.007.086.015.113.062.021.038.026.067.026.142 0 .088.003.096.036.13.044.044.08.048.069.009-.031-.108-.025-.147.042-.223.04-.046.049-.065.049-.107 0-.027-.007-.068-.014-.091-.013-.038-.012-.044.022-.079s.042-.037.081-.03.047.004.082-.046c.042-.061.154-.136.26-.176.045-.017.085-.043.114-.074a.34.34 0 0 1 .084-.067c.043-.02.149-.026.172-.01a2.45 2.45 0 0 1 .229.347c.11.208.132.35.154.982l.024.409c.037.235.041.319.019.432a1.58 1.58 0 0 0-.026.19.71.71 0 0 1-.104.312c-.055.082-.129.149-.216.197-.058.026-.082.029-.244.031-.17.002-.184 0-.254-.03l-.114-.048c-.031-.012-.048-.03-.07-.078-.026-.055-.028-.079-.029-.224 0-.15-.009-.192-.031-.14-.026.062-.041.224-.035.392.008.219.012.258.035.258.028 0 .048.046.093.219a1.74 1.74 0 0 1 .009.514c-.012.075-.011.091.009.134s.022.096.014.932l.017 1.01c.024.12.025.165.018.756-.129.044-.244.114-.298.271-.305-.004-.587-.636-1.026-.304-.38.339-1.127.045-1.491.569-.341.184-.091 1.006-.412.618h.108c0-.004-.048-.031-.107-.061-.118-.061-.275-.166-.388-.259-.07-.058-.073-.062-.071-.113.003-.066.028-.104.089-.135.026-.013.048-.027.048-.029s-.043-.022-.095-.044a3.17 3.17 0 0 1-.4-.201c-.045-.034-.097-.162-.109-.269l-.025-.226c-.005-.044-.014-.091-.021-.104-.14-.179-.301-.34-.481-.478-.202-.146-.394-.307-.573-.48-.069-.072-.077-.077-.102-.062s-.027.02-.02.104.007.09-.024.114l-.031.025.031.045c.035.052.04.091.011.091a.39.39 0 0 1-.102-.089c-.045-.049-.087-.085-.091-.08-.019.019-.009.083.019.119.17.219.228.282.31.334.073.045.392.299.429.341.014.016.032.049.039.075.011.041.009.049-.013.07-.03.028-.094.043-.132.03a.67.67 0 0 1-.12-.096l-.168-.152c-.045-.039-.083-.084-.114-.134-.119-.214-.194-.311-.194-.253.039.099.089.193.148.281.04.054.044.068.018.068a.37.37 0 0 1-.093-.084c-.072-.08-.106-.107-.12-.093s.053.132.098.179a.73.73 0 0 1 .137.206c.005.017.032.052.06.078.048.044.049.047.026.064-.049.036-.157.014-.266-.053-.079-.048-.089-.069-.1-.206-.004-.047-.016-.111-.026-.14-.016-.045-.018-.093-.01-.31l.009-.256-.037-.073c-.021-.044-.04-.089-.057-.134l-.091-.219c-.052-.116-.079-.164-.102-.177-.051-.028-.087-.004-.131.091-.048.101-.104.157-.183.184s-.121.017-.163-.027a.27.27 0 0 1-.082-.173c-.009-.061-.032-.123-.096-.248-.01-.02.023-.007.084.034.07.046.139.056.2.028.026-.011.031-.023.031-.06 0-.055-.01-.061-.117-.061-.04 0-.08-.005-.118-.017a.62.62 0 0 1-.206-.175c-.04-.057-.041-.058-.044-.025s-.007.039-.043.02c-.061-.033-.207-.253-.239-.36-.013-.045-.022-.084-.019-.088s.03-.006.061-.006c.046 0 .054-.003.047-.019-.009-.047-.015-.095-.018-.143-.01-.139-.023-.172-.072-.189-.034-.011-.061-.054-.062-.094 0-.011-.02-.051-.043-.087a.35.35 0 0 1-.043-.082c0-.009-.006-.016-.013-.016s-.01.019-.006.059c.009.061-.009.131-.029.119s-.049-.13-.049-.176c0-.056.021-.098.055-.114s.04-.041.007-.059c-.043-.023-.079-.014-.113.026l-.033.04-.021-.049c-.012-.03-.021-.061-.026-.093-.008-.058.023-.087.128-.122s.219-.03.317.023c.087.045.093.046.118.02.039-.039.017-.172-.039-.239-.033-.04-.044-.095-.072-.386-.008-.075-.007-.076.022-.076.016 0 .043.009.06.018.058.033.394.017.641-.031a1.41 1.41 0 0 0 .195-.068l.224-.091c.049-.019.11-.048.134-.065.051-.029.105-.054.161-.073a1.24 1.24 0 0 0 .341-.165c.098-.065.122-.075.171-.075.025-.001.05.003.074.011.009.006.025.051.033.1l.03.161c.015.079.009.112-.043.236-.019.047-.032.096-.039.147a.19.19 0 0 0 .027.138c.03.059.044.072.113.107s.086.04.203.04c.142 0 .151.007.123.083-.061.164-.082.206-.117.226-.099.059-.149.126-.149.201 0 .065-.017.098-.078.151s-.084.093-.095.171c-.004.032-.046.172-.095.311l-.106.31c-.019.057-.019.059.016.147.021.059.056.112.101.155.075.075.112.144.112.211 0 .037-.004.045-.024.045-.013 0-.026-.005-.03-.01s-.03-.014-.06-.018a.87.87 0 0 1-.142-.041c-.083-.031-.101-.044-.277-.216s-.231-.211-.184-.129c.011.02.021.046.021.059s.016.044.037.072.037.055.037.061a3 3 0 0 0 .295.284c.012.007.074.077.137.155.137.171.128.162.29.27.089.059.142.102.167.14.034.044.072.084.114.12.095.076.167.178.207.293.015.05.044.107.071.142.116.148.16.224.16.28 0 .03-.006.065-.013.079-.019.036-.004.098.038.151.032.041.036.055.036.128 0 .098.016.123.125.197.092.062.225.124.369.171s.241.056.305.029c.026-.011.055-.018.083-.02.02 0 .057-.011.083-.025.033-.017.072-.025.127-.025.07 0 .097-.009.236-.07.131-.059.171-.071.249-.077s.104-.013.171-.055a1.2 1.2 0 0 0 .107-.073c.024-.021.044-.026.118-.026.049 0 .092-.003.095-.006s.02-.032.038-.063.04-.058.066-.08a.76.76 0 0 1 .254-.088c.049 0 .098-.021.122-.057s.037-.036.063.016c.012.025.029.047.038.05.022.007.02-.063-.003-.107-.03-.06-.015-.072.09-.076l.094-.004v-.061c.001-.087.002-.088.042-.102.029-.01.037-.02.037-.047 0-.019-.009-.047-.02-.062-.022-.031-.013-.046.032-.053.039-.005.045-.043.018-.096-.021-.04-.02-.043.018-.121.005-.01.026-.02.047-.022.034-.004.039-.009.039-.041 0-.053-.03-.103-.073-.12-.025-.01-.04-.026-.044-.047a.57.57 0 0 0-.024-.076c-.009-.024-.013-.065-.009-.092.005-.035.001-.053-.013-.064-.026-.021-.025-.033.005-.071.014-.018.025-.049.025-.075 0-.035-.009-.052-.053-.093-.08-.076-.084-.087-.075-.245.008-.114.005-.148-.011-.189-.012-.031-.02-.085-.02-.143v-.094l-.054-.052a.52.52 0 0 1-.133-.24c-.011-.039-.028-.074-.037-.078-.022-.009-.044-.069-.035-.101s-.026-.044-.072-.015c-.063.04-.072.062-.05.133s.014.125-.018.125c-.011 0-.038-.011-.058-.025-.044-.029-.092-.032-.092-.006 0 .01.021.042.047.07.061.067.075.095.075.152 0 .047-.001.047-.058.059l-.058.011.004.064c.006.088-.015.094-.101.029l-.073-.05c-.014 0-.006.036.011.045a.6.6 0 0 1 .092.174c0 .024-.05.01-.081-.025-.018-.02-.04-.037-.049-.037-.021 0-.02.01.002.049s.024.128-.001.152c-.014.014-.031.017-.062.011l-.043-.008.009.054c.03.164-.004.189-.076.057-.04-.074-.053-.089-.079-.089-.052 0-.047.061.012.17.018.035.038.068.062.099.007.004.017.022.024.039.009.024.008.036-.009.054-.044.048-.09.015-.09-.062 0-.026-.008-.04-.022-.044a1.2 1.2 0 0 1-.114-.05c-.004-.002-.02.024-.035.057-.03.063-.029.079.007.172.023.06.018.114-.013.126-.01.004-.037-.001-.061-.01-.06-.025-.086-.023-.124.012-.03.028-.035.029-.066.012-.019-.009-.065-.053-.104-.097s-.075-.079-.08-.079-.01.013-.01.029c0 .043-.022.05-.054.02-.051-.047-.079-.026-.055.042s.002.079-.075.043c-.07-.033-.084-.062-.062-.133.017-.059.017-.061-.003-.061-.009 0-.028.032-.043.072-.035.097-.052.11-.097.073-.02-.016-.047-.048-.061-.072-.028-.05-.072-.092-.082-.081-.004.004.011.038.035.076.038.06.042.074.032.114-.014.061-.044.082-.08.058-.015-.01-.043-.018-.06-.018-.045 0-.109-.065-.098-.101.02-.073.022-.082.01-.082s-.021.013-.032.03c-.029.044-.06.057-.103.042-.053-.018-.123.029-.149.102s-.053.072-.118.012c-.044-.04-.052-.054-.052-.094 0-.047-.026-.092-.056-.092-.009 0-.019-.011-.024-.025-.009-.029-.022-.031-.043-.007-.031.038-.134.005-.134-.043 0-.007-.01-.012-.024-.012-.038 0-.085-.026-.093-.051-.005-.014-.019-.023-.037-.023-.025 0-.029-.006-.029-.037s-.002-.037-.043-.029-.043.006-.043-.02c0-.015-.009-.035-.022-.044s-.018-.019-.006-.031c.025-.025.018-.035-.022-.035s-.048-.027-.012-.073c.028-.037.03-.056.006-.102s-.023-.101.008-.166l.049-.118c.013-.035.032-.07.042-.078s.095-.016.269-.02c.285-.005.312-.009.506-.085l.226-.087.184-.074.281-.115c.265-.107.391-.173.469-.248.128-.121.165-.141.257-.141.065 0 .091.006.123.027a.56.56 0 0 0 .098.049c.039.015.067.037.09.07.018.026.062.073.097.103.059.05.071.055.127.055s.069-.006.094-.031.03-.04.025-.07a3.18 3.18 0 0 0-.124-.375c-.026-.061-.04-.118-.061-.257-.024-.093-.069-.179-.131-.252-.058-.053-.134-.102-.16-.102-.032-.01-.062-.024-.089-.044-.042-.027-.088-.046-.137-.056l-.137-.028c-.135-.033-.231-.044-.295-.037-.131.016-.353-.03-.508-.106-.096-.046-.098-.069-.021-.145.069-.067.106-.136.103-.194l-.001-.08c.002-.05-.009-.092-.025-.092-.008 0-.011.04-.009.101.003.097.001.104-.044.177-.05.082-.124.137-.184.137a.18.18 0 0 0-.066.016.65.65 0 0 1-.106.031c-.112.023-.142.044-.187.123-.058.1-.103.148-.144.148a.42.42 0 0 1-.124-.045c-.091-.044-.092-.044-.172-.031-.061.01-.087.021-.105.044-.013.017-.055.042-.092.057-.059.023-.074.025-.116.012-.08-.019-.147-.076-.178-.152-.034-.069-.039-.089-.032-.146a.4.4 0 0 1 .034-.118c.021-.034.027-.075.018-.114l-.012-.22a1.09 1.09 0 0 0-.054-.357l-.024-.088.028-.107c.032-.124.056-.286.056-.386 0-.087.042-.244.08-.304s.122-.108.178-.109c.088-.002.2.068.354.22.297.295.355.338.539.397.071.024.145.034.219.03.153 0 .254-.024.485-.115l.179-.067a2.08 2.08 0 0 0 .155-.056c.176-.066.577-.266.612-.305.041-.036.085-.068.131-.096.106-.068.108-.07.157-.173l.05-.104.009-.198.01-.328c.001-.105.005-.135.022-.156l.022-.026zm-3.916.198c.043.001.063.015.087.057.009.015.017.017.029.009l.048-.034c.028-.02.034-.021.067-.004.059.03.066.074.024.131l-.027.037.028.024c.039.031.07.029.094-.006.031-.047.054-.048.1-.005s.07.085.08.149c.008.049-.006.08-.035.08s-.054-.037-.054-.073c0-.019-.01-.047-.024-.063-.023-.028-.024-.028-.067-.008-.057.027-.092.026-.126-.003s-.036-.073-.014-.095c.009-.009.009-.026.002-.054l-.011-.042-.024.04c-.033.056-.061.05-.105-.022-.021-.034-.045-.061-.055-.061-.024 0-.021.021.007.047a.49.49 0 0 1 .058.086l.035.063-.053.048c-.029.026-.066.048-.081.048s-.031.009-.036.025c-.01.034-.051.053-.095.044s-.07-.028-.07-.051c0-.031-.088-.141-.106-.133-.009.004-.029.007-.043.007-.021 0-.016.009.031.061s.057.066.057.121c0 .062-.025.108-.061.114-.01.002-.044-.002-.078-.007-.052-.009-.065-.018-.119-.082-.024-.025-.044-.054-.061-.084 0-.016-.071-.013-.122.006-.027.009-.044.024-.044.039l-.003.044c-.002.026-.062.047-.135.047-.049 0-.064.007-.106.045a.67.67 0 0 1-.184.125c-.028.013-.052.027-.052.032s.013.019.03.032c.039.031.042.094.005.127-.02.018-.041.023-.096.02l-.07-.003-.026.061h0c-.024.057-.052.078-.069.05-.009-.013.023-.105.049-.145.016-.024.028-.027.097-.027.059 0 .079-.004.079-.017 0-.026-.026-.042-.073-.046-.093-.009-.051-.055.142-.157.041-.022.101-.063.133-.093.063-.058.068-.06.154-.072.055-.008.057-.009.051-.041-.009-.043.019-.067.096-.086.099-.024.154-.019.184.019.083.102.14.15.178.15s.039-.004.039-.037-.017-.056-.073-.115c-.041-.044-.073-.089-.073-.102 0-.022.059-.055.142-.08.034-.01.093.039.148.124.039.061.078.085.078.048-.022-.055-.054-.105-.096-.148-.03-.026-.035-.078-.009-.088.037-.014.086.016.125.076.045.069.1.128.123.128.009 0 .015-.017.015-.043-.009-.063-.041-.121-.091-.162s-.037-.069.031-.073h.02 0zm2.692.12c-.247 0-.43.025-.541.074l-.096.037a.58.58 0 0 0-.201.117c-.025.025-.044.055-.058.088s-.024.059-.04.086c-.025.042-.025.043-.002.059.012.009.038.017.057.017.054 0 .094.021.161.084a.58.58 0 0 0 .081.066h0c.035.013.05.009.079-.022s.037-.03.131-.03c.128 0 .253-.031.366-.091a.66.66 0 0 1 .097-.049.66.66 0 0 0 .092-.044 1.32 1.32 0 0 1 .179-.073c.157-.051.167-.081.043-.128-.032-.011-.058-.027-.058-.034 0-.021.097-.002.2.039.093.037.122.038.134.006.021-.054-.058-.1-.269-.157-.114-.037-.235-.051-.355-.044zm2.093.059l.165.08c.111.054.177.094.202.122.046.052.06.092.038.106s-.035.012-.12-.045-.18-.098-.281-.117c-.116-.022-.148-.091-.057-.126zm1.162.161c-.097 0-.235.109-.272.217a1.88 1.88 0 0 1-.059.131l-.058.133-.05.143a1.09 1.09 0 0 0-.053.234c-.01.082-.026.152-.037.17-.02.03-.02.03.044.061l.083.037c.039.012.073.008.073-.01 0-.01-.027-.049-.061-.086-.04-.044-.06-.076-.055-.089a.94.94 0 0 0 .044-.216c0-.047.099-.318.155-.421.064-.12.147-.18.268-.192.036-.004.071-.014.079-.023.032-.039-.025-.091-.1-.091zm-3.354.021h0l.051.001.145.009c.051.016.008.063-.092.098-.037.015-.073.033-.107.054-.094.06-.11.052-.11-.056 0-.091.007-.107.112-.107zm-.328.036c.044.015.058.032.058.066 0 .019-.007.039-.015.045-.036.027-.06.027-.089-.002-.016-.016-.03-.036-.03-.044 0-.025.052-.067.077-.066zm3.867.237c-.011.001-.013.057-.008.18l.017.388.009.207.043.061c.048.069.048.059.028.403-.011.206-.023.244-.089.305-.035.031-.033.09.003.103h0c.015.006.037.006.048-.001.028-.015.066-.103.102-.236a.73.73 0 0 0 .025-.275c-.005-.162-.019-.235-.062-.319-.024-.046-.021-.121.008-.201.037-.104.031-.162-.03-.348l-.055-.184c0-.01-.007-.033-.014-.05s-.017-.031-.022-.031zm-6.043.221l.089.001.207.004.019.037c.027.055.033.447.008.556-.03.131-.066.213-.121.275-.107.108-.232.197-.369.262-.181.083-.369.152-.56.207-.015 0-.084.019-.154.043h0c-.083.034-.173.048-.262.042-.074 0-.158-.008-.185-.016a.56.56 0 0 1-.191-.122.94.94 0 0 1-.096-.239l-.035-.162c-.029-.134-.027-.143.052-.256.136-.195.321-.293.893-.478l.519-.142c.03-.006.1-.009.185-.01h0zm-.167.182c-.063-.004-.126.004-.185.025-.045.015-.103.041-.128.057s-.083.045-.131.065a.96.96 0 0 0-.275.172c-.044.04-.074.081-.113.164l-.079.154c-.016.026-.024.052-.019.064.01.026.074.053.158.067s.175.015.26-.007c.026-.01.082-.023.122-.028.083-.01.116-.025.149-.065.039-.049.137-.097.431-.211l.154-.056c.026-.009.05-.023.07-.041.03-.028.032-.037.032-.142 0-.081-.006-.121-.02-.145-.037-.062-.055-.067-.3-.072zm.021.229c.063 0 .126.011.166.034.058.034.076.074.057.126-.009.026-.027.037-.09.058l-.195.077-.131.058c-.01.005-.012-.019-.008-.089.004-.053.001-.116-.007-.142-.011-.04-.009-.05.01-.07.033-.033.115-.051.197-.051zm-.458.181c.054-.001.09.065.046.109s-.126.001-.11-.061c.005-.018.021-.037.04-.044a.07.07 0 0 1 .024-.005zm-.2.211l.043.043c.024.024.039.049.034.056a.18.18 0 0 1-.121.006c-.016-.016-.008-.048.018-.077l.026-.028zm2.434.001c-.009.001-.008.041.006.113s.055.126.104.146h0c.033.014.104.014.104.001 0-.006-.021-.024-.045-.039-.077-.045-.108-.082-.132-.152-.016-.047-.028-.069-.035-.068zm4.309.119c-.014-.001-.026.026-.054.096a1.87 1.87 0 0 1-.072.162c-.038.076-.042.091-.026.101.042.026.143-.024.173-.087a.37.37 0 0 0 0-.255c-.009-.01-.015-.017-.022-.017zm-4.356.446h0c-.076.002-.115.028-.176.106-.048.062-.053.114-.013.142s.066.023.094-.024c.035-.06.072-.074.141-.057.03.008.105.014.166.014.101 0 .111-.002.111-.024s-.053-.074-.079-.074c-.008 0-.039-.018-.068-.04-.046-.034-.065-.04-.14-.044h-.035zm4.102.016c-.016.001-.043.009-.091.028l-.115.044c-.011.004-.022.016-.022.027 0 .031.207.021.243-.012.03-.027.033-.06.008-.08-.006-.005-.012-.008-.022-.007zm-4.789.19c-.026 0-.044.014-.058.044-.026.069-.026.146 0 .215l.02.05.057-.007c.031-.004.076-.017.098-.03a.68.68 0 0 1 .106-.044c.035-.011.067-.026.071-.031.008-.011-.076-.079-.186-.149-.047-.03-.081-.045-.108-.045zm.591.482h0c.009-.001.021.006.044.02.054.035.059.045.044.097-.01.035-.006.055.032.145l.051.124c.004.012.025.024.055.028.043.008.053.005.079-.024s.042-.032.078-.032c.044 0 .05-.004.066-.044.011-.026.017-.054.02-.082s.004-.022.01.023c.005.033.007.074.003.089-.008.034.012.035.101.008.061-.019.103-.017.103.006 0 .006-.054.031-.119.057-.06.023-.118.049-.174.079l-.187.102c-.128.066-.135.069-.228.069-.064-.005-.129.01-.184.044-.154.078-.166.093-.296.39l-.071.177c-.015.044-.038.095-.051.113-.028.042-.043.043-.061.002-.011-.025-.01-.04.001-.07a1.08 1.08 0 0 0 .033-.112.39.39 0 0 1 .036-.1.17.17 0 0 0 .018-.079c0-.077.033-.132.098-.168a.71.71 0 0 0 .122-.096 1.23 1.23 0 0 1 .111-.098 1.89 1.89 0 0 0 .118-.099c.07-.063.078-.075.12-.198s.045-.132.028-.188c-.022-.077-.028-.151-.015-.172zm.955.343c.074.034.144.078.207.13 0 .016-.036.009-.156-.028-.072-.023-.113-.043-.113-.053 0-.021.037-.047.061-.047zm-4.178.129h0c-.036.01-.029.018.023.053.071.048.084.077.096.209.008.082.011.094.04.108a.45.45 0 0 0 .168.037.35.35 0 0 1 .11.03c.054.028.079.031.098.01.034-.034.013-.069-.129-.215-.061-.065-.127-.125-.199-.178a.52.52 0 0 0-.209-.056zm3.878.162c.057.001.094.045.121.132.004.011.013.022.021.022s.012-.018.008-.061c-.007-.054-.004-.062.018-.075.056-.029.166.038.154.095-.004.019-.163.081-.364.144-.122.038-.212.048-.23.027-.008-.009-.017-.039-.021-.066l-.008-.05.098-.074c.087-.064.152-.096.202-.096zm-.384.192c.015-.001.022.003.03.011.023.023.055.127.044.144a.52.52 0 0 1-.159.075c-.027 0-.149.063-.206.107-.029.022-.061.04-.071.04-.018 0-.053-.068-.053-.104 0-.029.022-.064.05-.079.02-.01.03-.009.048.007.031.028.045.015.068-.062s.038-.088.173-.122l.077-.016zm-3.584.073c.013.003.049.071.068.135.03.101.028.166-.003.096s-.054-.146-.071-.222zm.709.084c-.028 0-.055.034-.062.083l-.025.133c-.025.123-.023.143.022.24s.065.128.101.142.084.013.114-.008c.037-.026.036-.094-.004-.18a.89.89 0 0 1-.049-.157c-.033-.16-.068-.254-.096-.254zm8.556.017c.011-.001.023.001.035.004.068.012.142.053.164.123-.008.063-.069.123-.031.19.05.095.159.133.251.173.118.046.241.081.363.115l.366.105c.079.03.169.089.174.182-.005.079-.104.077-.161.063l-.483-.134-.622-.177c-.076-.027-.17-.063-.192-.15-.02-.068.052-.108.111-.094.04-.001.144.038.065-.009-.075-.057-.171-.12-.175-.224-.007-.079.057-.163.136-.167zm-6.187.13c.02-.001.037.014.05.045.019.044.019.045-.016.073-.045.036-.063.035-.078-.003-.017-.044-.015-.074.008-.096.012-.012.025-.019.037-.02zm1.487.112h0c-.018-.002-.031.008-.061.034-.047.042-.072.044-.131.016-.04-.019-.045-.019-.083-.001a.55.55 0 0 1-.061.026c-.016.005-.019.016-.014.046s.001.044-.032.069a.26.26 0 0 1-.104.038c-.038.006-.078.018-.094.029l-.055.04c-.022.016-.035.016-.082.005-.054-.013-.06-.012-.107.021-.056.037-.127.046-.19.024-.024-.009-.03-.003-.051.046-.024.056-.053.073-.066.038s-.036-.02-.027.02.007.04-.098.216c-.009.015-.028.027-.042.027-.021 0-.024-.005-.017-.027.018-.057.021-.095.009-.095s-.032.026-.057.057c-.033.044-.044.051-.044.031 0-.053-.012-.063-.074-.063-.068 0-.082.012-.049.043s.022.048-.031.079c-.036.022-.042.031-.042.073 0 .06.009.087.032.087.01 0 .017-.013.017-.035 0-.043.03-.074.051-.053.01.01.009.026-.001.063-.026.085.006.099.055.025.018-.026.038-.049.044-.049s.025.014.041.03.04.03.054.03c.022 0 .025-.007.022-.045s0-.045.021-.045.026.012.037.067c.017.089.04.093.11.016.061-.067.077-.063.088.019.008.06.028.06.044 0 .025-.096.079-.111.121-.033.035.062.053.061.053-.003 0-.05.029-.096.053-.081.007.005.016.024.021.044s.012.039.018.043c.015.009.072-.053.076-.083.003-.02.013-.027.044-.03.046-.005.049-.015.013-.063-.022-.029-.025-.043-.015-.076.012-.043.038-.053.055-.022.006.01.022.047.036.082.019.046.033.064.05.064.032 0 .08-.051.109-.116.013-.03.028-.055.033-.055s.027.019.051.043.052.043.065.043c.022 0 .023-.007.017-.064l-.01-.082c-.003-.011.005-.018.02-.018.024 0 .034.019.049.095.009.047.026.042.056-.017.023-.044.024-.057.012-.104-.026-.101.013-.157.079-.114.047.031.061.03.096-.008.026-.027.03-.029.047-.012s.039.005.027-.026c-.019-.049.023-.084.054-.046.009.01.035.018.062.018.046 0 .047-.001.047-.043 0-.036-.013-.057-.081-.129s-.085-.085-.113-.078c-.044.012-.069.009-.113-.012-.013-.008-.028-.014-.043-.017zm4.122.293c.033 0 .069.009.096.021.071.026.149.09.137.174-.018.088-.13.088-.196.058-.078-.027-.164-.102-.14-.192.018-.044.059-.06.101-.061zm-3.876.108c-.039 0-.044.011-.017.038.015.015.024.041.024.071s.007.05.015.053c.023.009.029.001.038-.04.01-.051-.025-.122-.06-.122zm4.373.078a.35.35 0 0 1 .121.024l1.099.4c.083.036.182.098.185.2-.007.093-.125.083-.188.061l-.672-.247-.502-.188c-.073-.032-.165-.099-.141-.191.017-.044.055-.058.096-.059zm-4.573.131c-.007 0-.013.001-.021.004-.016.007-.017.01-.001.035.011.018.02.038.026.059s.018.037.028.045c.03.023.042-.002.021-.043-.01-.021-.019-.049-.019-.062 0-.021-.015-.035-.034-.036zm.196.096c-.017 0-.039.059-.039.105a.28.28 0 0 1-.018.086l-.018.048c0 .016.04-.001.072-.031s.038-.044.038-.091c0-.06-.017-.118-.034-.118zm-3.396.043c-.011-.001-.017.013-.014.043.009.091.11.249.258.405.046.048.051.05.1.043.028-.005.055-.011.059-.015s-.027-.037-.069-.073a.89.89 0 0 1-.127-.143 1.02 1.02 0 0 0-.096-.12c-.025-.025-.056-.065-.068-.092s-.03-.046-.042-.048zm1.44.115h0l-.034.047c-.029.043-.027.065.003.04.025-.021.044-.006.044.034 0 .045.052.075.132.075.034 0 .065.006.07.013h0c.013.021.023.002.026-.051.002-.038-.001-.047-.014-.043l-.034.014c-.01.005-.02-.004-.024-.021-.008-.026-.008-.027-.032-.005s-.051.013-.054-.032c-.001-.018-.009-.028-.022-.028s-.028-.011-.039-.025-.017-.02-.021-.019zm6.381.013a.39.39 0 0 1 .111.016c.221.057.419.177.626.271.131.07.271.115.414.151.094.022.186.103.186.204-.017.08-.122.066-.185.07l-.083-.004c.086.153.171.33.121.509-.023.116-.131.201-.247.204-.198.01-.39-.089-.523-.229-.097-.103-.152-.245-.137-.387l-.001-.461c-.083-.033-.174-.08-.265-.057-.077.037-.101.132-.107.211.003.128.115.211.184.306.043.075-.044.163-.122.135a.49.49 0 0 1-.319-.337c-.05-.177.013-.371.127-.51.055-.063.136-.098.219-.094zm-5.196.024c-.007 0-.012.024-.012.053 0 .048-.016.082-.039.082-.006 0-.021-.022-.035-.049s-.03-.046-.037-.042c-.019.011-.014.039.017.101.016.031.026.064.024.073s-.003.023.001.034c.01.027.025.022.048-.018.011-.02.033-.038.048-.04.028-.004.028-.005.014-.096-.012-.08-.018-.097-.03-.097zm.323.01c-.007 0-.014.012-.02.037-.012.048-.04.056-.069.018-.039-.049-.05-.023-.018.04.016.031.029.068.029.08s.006.034.012.046c.015.028.031.03.041.005.004-.01.022-.024.039-.03.027-.01.031-.017.023-.045-.005-.018-.012-.061-.017-.095s-.012-.057-.021-.057zm-.537.033c-.009 0-.018.008-.033.023s-.041.031-.053.031c-.021.001-.077.073-.077.098 0 .017.014.014.04-.009.014-.012.039-.02.064-.018.032.002.046-.005.066-.029.029-.038.033-.069.009-.089l-.015-.006zm-.458.055c-.005 0-.015.006-.03.017-.022.014-.047.024-.072.031l-.048.013.029.022c.025.019.029.031.026.079-.005.076.013.071.032-.008.009-.035.029-.084.045-.11s.026-.045.017-.045zm.229.036c-.037.041-.065.089-.082.141 0 .014.02.003.058-.033s.057-.108.025-.108zm-.151.003c-.009 0-.018.001-.027.004-.029.009-.061.066-.061.11s.02.029.03-.018c.009-.038.038-.071.052-.057.005.005.007.027.005.05-.005.06.013.052.044-.018l.026-.061-.035-.008c-.011-.002-.021-.003-.032-.003zm-1.945.142c-.044.034-.028.053.152.191l.095.066c.017.002.009-.02-.015-.042-.013-.012-.025-.034-.025-.048 0-.045-.162-.172-.207-.167zm8.243.151c.025.136 0 .276.021.412.032.132.171.223.305.217.077-.001.128-.075.127-.147.007-.163-.112-.301-.248-.376a2.47 2.47 0 0 0-.204-.107zm-1.547.037c.048.002.099.021.138.044l1.308.834.416.273c.071.057.147.162.088.253-.064.079-.179.036-.254-.005l-.058-.035-1.651-1.083c-.068-.047-.153-.131-.111-.219.026-.047.072-.064.12-.062zm-8.699.205c.065-.004.127.022.154.093.026.094-.052.174-.115.23l-.608.524 1.308-.168c.136-.028.244.141.161.252-.097.149-.289.127-.444.147l-.531.047-.435 1.216c-.058.145-.165.328-.345.312-.132-.023-.191-.184-.141-.301l.499-1.184-.5.047-.495.416c-.097.087-.313.082-.31-.084.01-.167.178-.252.287-.355l1.337-1.113c.044-.044.113-.075.178-.079zm9.083.523c.128-.005.254.031.361.101.076.048.135.175.052.243-.093.047-.194-.023-.289-.026-.097-.019-.209.001-.271.085-.089.11-.036.262.031.368.119.177.288.321.476.42.123.061.287.107.407.016.095-.069.115-.202.073-.306-.028-.106-.119-.189-.125-.302.014-.116.168-.096.239-.045l.015.01.015.011c.215.177.306.51.166.76a.56.56 0 0 1-.498.307c-.298-.005-.564-.174-.779-.367-.194-.178-.377-.399-.418-.668-.028-.18.049-.366.19-.48.098-.081.224-.123.352-.127zm-.951.767a.42.42 0 0 1 .091.008c.233.037.403.217.546.39l.643.757c.063.081.126.214.042.303-.098.09-.241.018-.321-.062l-.419-.502c-.146-.168-.269-.364-.462-.484-.142-.094-.346.026-.353.191-.022.199.124.358.231.508l.485.638c.065.094.104.249-.006.326-.118.079-.259-.017-.334-.111l-.831-1.123c-.068-.102-.174-.196-.168-.327.014-.123.177-.158.265-.088.043.026.078.061.107.099.067.113.011-.093.037-.139.022-.219.233-.376.446-.381zm-1.454.008c.07-.003.144.027.184.086.069.078.092.219-.009.281l-.016.009-.017.008h0c-.161.071-.352-.108-.302-.271.024-.074.09-.11.16-.113zm-4.56.061c.074-.004.148.026.182.1.061.151-.099.341-.261.293l-.019-.006c-.119-.032-.152-.183-.084-.277.037-.066.107-.108.183-.111zm-1.42.093a.72.72 0 0 1 .383.095.6.6 0 0 1 .321.443c.032.227-.046.463-.186.64-.058.081-.164.116-.257.079-.051-.015-.099-.039-.145-.065l-.662-.395c-.108.151-.196.355-.122.539.07.165.275.229.44.184.103-.017.201-.06.303-.082a.14.14 0 0 1 .13.19c-.067.153-.236.231-.393.263-.297.059-.612-.086-.785-.329-.156-.222-.127-.52-.016-.756.134-.281.341-.536.613-.695a.78.78 0 0 1 .379-.111zm5.222.084l.1.003c.255.024.524.168.612.421.044.12-.052.269-.186.243-.139-.032-.204-.181-.318-.255-.148-.124-.366-.09-.523-.004-.122.066-.189.233-.106.355.105.149.308.151.473.162.311.018.656.014.914.217a.9.9 0 0 1 .271.395c.111.272.095.615-.113.837-.211.234-.541.324-.848.324a.94.94 0 0 1-.863-.661c-.047-.135.049-.315.204-.301.164.025.223.202.324.31.11.148.304.232.485.185.195-.027.392-.175.398-.385a.41.41 0 0 0-.299-.405c-.258-.063-.531-.024-.791-.082-.258-.041-.502-.216-.574-.475-.086-.23-.028-.515.172-.666.186-.145.426-.215.662-.218zm-3.232.021a.17.17 0 0 1 .143.077c.07.099.009.222-.018.326l-.077.252c.087.028.193.027.257.101l.07-.479c.014-.138.162-.236.292-.179.103.038.124.161.111.257l-.075.663c.134-.149.327-.253.534-.236.222.002.434.146.51.357.086.222.043.463.041.694l-.034.818c-.008.129-.093.28-.24.27-.13.004-.223-.115-.228-.237-.009-.179.017-.358.025-.536l.037-.67c-.004-.131-.041-.299-.188-.335-.179-.061-.374.05-.45.214-.082.201-.085.423-.114.636l-.072.583c-.024.124-.128.25-.266.229-.13-.001-.204-.132-.197-.251.011-.197.05-.391.075-.586l.139-.988c-.025.02-.054.033-.089.032-.08.007-.158-.018-.235-.038l-.307 1.013c-.032.087-.033.227.084.246.09.03.206-.014.277.063.1.125.009.327-.143.355-.171.037-.35-.009-.507-.079s-.244-.251-.214-.418c.04-.261.144-.505.222-.756l.177-.529c-.083-.016-.186-.053-.187-.152-.008-.118.115-.211.228-.179l.022.005c.045.027.055-.012.064-.05.048-.132.08-.272.148-.395a.21.21 0 0 1 .184-.097zm1.184.176c-.022.06-.031.097-.03.129-.001-.031.008-.071.028-.121zm-3.147.028c-.05.002-.098.014-.142.038-.106.051-.192.135-.269.223l.607.355c.08-.139.16-.318.078-.474-.056-.097-.166-.147-.274-.143zm6.264.091c.101-.001.194.081.239.17l.749 1.321c.054.1.089.247-.009.333s-.245.026-.316-.067c-.094-.12-.153-.263-.229-.395l-.575-1.074c-.05-.091-.044-.234.069-.272.023-.009.047-.014.071-.014zm-5.127.068c.022 0 .044.004.066.013.131.043.139.201.083.306l-.622 1.376c-.053.115-.173.235-.311.197-.114-.026-.157-.162-.127-.265.039-.141.116-.267.176-.399l.515-1.066c.04-.085.126-.162.22-.162z"/></svg>